<svg width="141" height="159" viewBox="0 0 141 159" fill="none" xmlns="http://www.w3.org/2000/svg">
<path fill-rule="evenodd" clip-rule="evenodd" d="M66.1481 6.00895C66.1481 1.39014 61.1481 -1.4966 57.1481 0.812801L12.9615 26.3239C8.96154 28.6333 8.96155 34.4068 12.9615 36.7162L57.1481 62.2273C61.1481 64.5367 66.1481 61.65 66.1481 57.0312V6.00895ZM83.1481 62.1555C79.1481 64.4649 74.1481 61.5782 74.1481 56.9594V6.00894C74.1481 1.39014 79.1481 -1.4966 83.1481 0.812803L127.272 26.288C131.272 28.5974 131.272 34.3709 127.272 36.6803L83.1481 62.1555ZM87.0859 79.5119C83.0859 77.2025 83.0859 71.429 87.0859 69.1196L131.296 43.5948C135.296 41.2854 140.296 44.1722 140.296 48.791V99.8406C140.296 104.459 135.296 107.346 131.296 105.037L87.0859 79.5119ZM89.5 157.329C85.5 159.638 80.5 156.752 80.5 152.133V101.2C80.5 96.5807 85.5 93.694 89.5 96.0034L133.61 121.47C137.61 123.779 137.61 129.553 133.61 131.862L89.5 157.329ZM53.0859 79.5119C57.0859 77.2025 57.0859 71.429 53.0859 69.1196L9 43.6666C5 41.3572 0 44.244 0 48.8628V99.7688C0 104.388 5 107.274 9 104.965L53.0859 79.5119ZM12.9763 122.299C8.97631 119.99 8.97631 114.216 12.9763 111.907L57.1481 86.4042C61.1481 84.0948 66.1481 86.9816 66.1481 91.6004V142.606C66.1481 147.224 61.1481 150.111 57.1481 147.802L12.9763 122.299ZM116.667 127.134C118.535 125.955 119.094 123.485 117.915 121.617C116.736 119.748 114.266 119.189 112.398 120.368L99.2935 128.636L96.6263 123.86C95.5493 121.931 93.1125 121.241 91.1837 122.318C89.255 123.395 88.5645 125.832 89.6416 127.761L93.3375 134.379C95.0147 137.383 98.8685 138.364 101.778 136.528L116.667 127.134Z" fill="#C4C4C4"/>
</svg>
